# xmcd
#
# Track frame offsets:
#	150
#	20460
#	35530
#	54202
#	72522
#	85715
#	107167
#	129535
#	148810
#	167577
#	189077
#	206157
#	229122
#	250187
#	281242
#
# Disc length: 4352 seconds
#
# Revision: 7
# Processed by: cddbd v1.5.2PL0 Copyright (c) Steve Scherf et al.
# Submitted via: audiograbber 1.83.01
#
DISCID=d410fe0f
DTITLE=Jewel - This Way
DYEAR=2001
DGENRE=Pop-Folk
TTITLE0=Standing Still
TTITLE1=Jesus Loves You
TTITLE2=Everybody Needs Someone Sometime
TTITLE3=Break Me
TTITLE4=Do You Want To Play
TTITLE5=Till We Run Out Of Road
TTITLE6=Serve The Ego
TTITLE7=This Way
TTITLE8=Cleveland
TTITLE9=I Won't Walk Away
TTITLE10=Love Me, Just Leave Me Alone
TTITLE11=The New Wild West
TTITLE12=Grey Matter (Live)
TTITLE13=Sometimes It Be That Way (Live)
TTITLE14=Data Track
EXTD=(c)2001 Atlantic Recording Corp. - Warner Bros\nProduced by Dann Huff and 
EXTD=Jewel Kilcher\nExecutive Producers: Lenedra Carroll and Ron Shapiro\n\nKat
EXTD=alog: 075678351921
EXTT0=
EXTT1=
EXTT2=
EXTT3=
EXTT4=
EXTT5=
EXTT6=
EXTT7=
EXTT8=
EXTT9=
EXTT10=
EXTT11=
EXTT12=
EXTT13=
EXTT14=
PLAYORDER=
